<svg width="8" height="8" viewBox="0 0 8 8" fill="none" xmlns="http://www.w3.org/2000/svg">
<path d="M0 5.70898V1.89062C4.79989e-05 0.846375 0.846375 4.79989e-05 1.89062 0V0.799805C1.2882 0.799853 0.799853 1.2882 0.799805 1.89062V5.70898L0.805664 5.82031C0.861481 6.37043 1.32579 6.79976 1.89062 6.7998H5.70898L5.82031 6.79395C6.33382 6.74184 6.74184 6.33382 6.79395 5.82031L6.7998 5.70898V1.89062C6.79976 1.32579 6.37043 0.861481 5.82031 0.805664L5.70898 0.799805V0C6.75323 4.79989e-05 7.59956 0.846375 7.59961 1.89062V5.70898C7.59956 6.75323 6.75323 7.59956 5.70898 7.59961H1.89062C0.846375 7.59956 4.79989e-05 6.75323 0 5.70898ZM5.70898 0V0.799805H1.89062V0H5.70898Z" fill="black"/>
<path d="M3.50406 3.6657V2.18653C3.50406 2.0233 3.63666 1.8907 3.7999 1.8907C3.96313 1.8907 4.09573 2.0233 4.09573 2.18653V3.6657C4.09573 3.82894 3.96313 3.96153 3.7999 3.96153C3.63666 3.96153 3.50406 3.82894 3.50406 3.6657ZM4.97255 2.32447C4.87671 2.24859 4.73688 2.26525 4.661 2.36124C4.58512 2.45739 4.60162 2.5969 4.69776 2.67294C5.04969 2.95055 5.25141 3.36625 5.25141 3.8137C5.25141 4.614 4.6002 5.26521 3.80005 5.26521C2.99975 5.26521 2.34854 4.614 2.34854 3.8137C2.34854 3.36641 2.55011 2.95086 2.90171 2.67341C2.99786 2.59753 3.01436 2.45802 2.93848 2.36171C2.86259 2.26556 2.72324 2.24922 2.62677 2.32495C2.16786 2.68708 1.90471 3.22973 1.90471 3.8137C1.90471 4.85877 2.75497 5.70888 3.7999 5.70888C4.84482 5.70888 5.69508 4.85862 5.69508 3.8137C5.69508 3.22941 5.43161 2.68676 4.97255 2.32447Z" fill="#030104"/>
<path d="M2.34854 3.8137C2.34858 3.42232 2.50261 3.05478 2.77678 2.78328L2.90171 2.67341C2.98569 2.60692 3.0088 2.49169 2.96233 2.39949L2.93848 2.36171C2.86259 2.26556 2.72324 2.24922 2.62677 2.32495C2.16786 2.68708 1.90471 3.22973 1.90471 3.8137C1.90471 4.79361 2.65224 5.60229 3.60686 5.6993L3.7999 5.70888C4.84482 5.70888 5.69508 4.85862 5.69508 3.8137C5.69508 3.22941 5.43161 2.68676 4.97255 2.32447C4.87671 2.24859 4.73688 2.26525 4.661 2.36124L4.63713 2.39949C4.5909 2.49159 4.61374 2.60644 4.69776 2.67294C5.04969 2.95055 5.25141 3.36625 5.25141 3.8137C5.25141 4.614 4.6002 5.26521 3.80005 5.26521L3.80022 5.11531C4.51744 5.11522 5.101 4.53097 5.101 3.81355C5.10095 3.41227 4.92066 3.04028 4.6049 2.79109C4.44413 2.66384 4.41624 2.42988 4.54338 2.26863C4.67036 2.108 4.90464 2.07947 5.06584 2.20711C5.56058 2.59775 5.8451 3.18348 5.84514 3.81355C5.84514 4.94121 4.92783 5.8583 3.80022 5.85847C2.67246 5.85847 1.75432 4.94148 1.75432 3.81355C1.75436 3.18372 2.0388 2.59763 2.53362 2.20711C2.69476 2.08078 2.92875 2.10748 3.05608 2.26863C3.18317 2.42993 3.15573 2.66389 2.99455 2.79109C2.67899 3.04011 2.4985 3.41231 2.49846 3.81355C2.49846 4.53102 3.08275 5.11531 3.80022 5.11531L3.80005 5.26521L3.65178 5.25789C2.92084 5.18338 2.34854 4.56396 2.34854 3.8137ZM4.09573 2.18653C4.09573 2.0438 3.99439 1.92428 3.85979 1.89656L3.7999 1.8907C3.63666 1.8907 3.50406 2.0233 3.50406 2.18653V3.6657L3.51018 3.72566C3.53399 3.84105 3.62517 3.93159 3.74065 3.95515L3.7999 3.96153C3.94242 3.96138 4.06151 3.86007 4.08928 3.72566L4.09573 3.6657V2.18653ZM4.24553 3.66609C4.24532 3.91188 4.04602 4.11123 3.80022 4.1114C3.55427 4.1114 3.35414 3.91199 3.35393 3.66609V2.1866C3.35393 1.94052 3.55414 1.74031 3.80022 1.74031C4.04615 1.74048 4.24553 1.94063 4.24553 2.1866V3.66609Z" fill="black"/>
</svg>
